<svg width="99" height="83" viewBox="0 0 99 83" fill="none" xmlns="http://www.w3.org/2000/svg">
<path d="M91.6738 39.8959C91.2833 39.5054 90.6501 39.5054 90.2596 39.8959L83.8956 46.2599C83.5051 46.6504 83.5051 47.2836 83.8956 47.6741C84.2861 48.0646 84.9193 48.0646 85.3098 47.6741L90.9667 42.0172L96.6235 47.6741C97.0141 48.0646 97.6472 48.0646 98.0378 47.6741C98.4283 47.2836 98.4283 46.6504 98.0378 46.2599L91.6738 39.8959ZM87.8085 56.2911L86.8863 55.9045L87.8085 56.2911ZM78.8137 69.5923L78.1109 68.881L78.8137 69.5923ZM65.35 78.4813L65.7288 79.4068L65.35 78.4813ZM49.4667 80.603C48.9144 80.603 48.4667 81.0507 48.4667 81.603C48.4667 82.1553 48.9144 82.603 49.4667 82.603V81.603V80.603ZM90.9667 40.603H89.9667C89.9667 45.8534 88.9201 51.0528 86.8863 55.9045L87.8085 56.2911L88.7308 56.6777C90.8671 51.5816 91.9667 46.1194 91.9667 40.603H90.9667ZM87.8085 56.2911L86.8863 55.9045C84.8524 60.7562 81.8708 65.1658 78.1109 68.881L78.8137 69.5923L79.5166 70.3036C83.4634 66.4038 86.5944 61.7738 88.7308 56.6777L87.8085 56.2911ZM78.8137 69.5923L78.1109 68.881C74.3509 72.5962 69.8862 75.5442 64.9712 77.5558L65.35 78.4813L65.7288 79.4068C70.8847 77.2965 75.5698 74.2034 79.5166 70.3036L78.8137 69.5923ZM65.35 78.4813L64.9712 77.5558C60.0562 79.5674 54.7877 80.603 49.4667 80.603V81.603V82.603C55.047 82.603 60.5729 81.517 65.7288 79.4068L65.35 78.4813Z" fill="#FFA0A2"/>
<path d="M8.88077 52.21C9.35907 52.4861 9.97066 52.3222 10.2468 51.844L14.7468 44.0497C15.0229 43.5714 14.8591 42.9598 14.3808 42.6837C13.9025 42.4076 13.2909 42.5714 13.0147 43.0497L9.01475 49.9779L2.08654 45.9779C1.60825 45.7018 0.996661 45.8657 0.720518 46.344C0.444376 46.8222 0.608251 47.4338 1.08654 47.71L8.88077 52.21ZM8.37097 35.3731L7.38009 35.2383L8.37097 35.3731ZM13.6166 20.1971L12.7536 19.6919L13.6166 20.1971ZM24.321 8.12628L23.7156 7.33036L23.7156 7.33036L24.321 8.12628ZM39.1139 1.96593C39.6474 1.82298 39.964 1.27465 39.821 0.741181C39.6781 0.207715 39.1298 -0.108868 38.5963 0.0340742L38.8551 1L39.1139 1.96593ZM9.38077 51.344L10.3467 51.0851C8.9878 46.0137 8.65302 40.7206 9.36185 35.5078L8.37097 35.3731L7.38009 35.2383C6.63554 40.7137 6.98711 46.2744 8.41485 51.6028L9.38077 51.344ZM8.37097 35.3731L9.36185 35.5078C10.0707 30.295 11.8094 25.264 14.4797 20.7022L13.6166 20.1971L12.7536 19.6919C9.95068 24.4803 8.12464 29.7629 7.38009 35.2383L8.37097 35.3731ZM13.6166 20.1971L14.4797 20.7022C17.1499 16.1405 20.6995 12.1374 24.9264 8.92219L24.321 8.12628L23.7156 7.33036C19.2815 10.7031 15.5566 14.9035 12.7536 19.6919L13.6166 20.1971ZM24.321 8.12628L24.9264 8.92219C29.1533 5.707 33.9742 3.34311 39.1139 1.96593L38.8551 1L38.5963 0.0340742C33.2061 1.47838 28.1496 3.95761 23.7156 7.33036L24.321 8.12628Z" fill="#FFA0A2"/>
</svg>
