<svg width="54" height="54" viewBox="0 0 54 54" fill="none" xmlns="http://www.w3.org/2000/svg">
<rect width="54" height="54" rx="27" fill="#FFA0A2"/>
<path d="M21 15.072C21.327 15.025 21.661 15 22 15H32C32.339 15 32.673 15.025 33 15.072V24H30C30 22.346 28.654 21 27 21C25.346 21 24 22.346 24 24H21V15.072ZM35 24H39V22C39 19.213 37.363 16.802 35 15.676V24ZM30 26V27C30 28.654 28.654 30 27 30C25.346 30 24 28.654 24 27V26H15V34C15 36.414 16.721 38.435 19 38.899V29C19 28.448 19.447 28 20 28C20.553 28 21 28.448 21 29V39H33V29C33 28.448 33.447 28 34 28C34.553 28 35 28.448 35 29V38.899C37.279 38.434 39 36.414 39 34V26H30ZM19 24V15.676C16.637 16.802 15 19.213 15 22V24H19ZM27 28C27.552 28 28 27.551 28 27V24C28 23.449 27.552 23 27 23C26.448 23 26 23.449 26 24V27C26 27.551 26.448 28 27 28Z" fill="white"/>
</svg>
