<svg width="40" height="40" viewBox="0 0 40 40" fill="none" xmlns="http://www.w3.org/2000/svg">
<rect width="40" height="40" rx="20" fill="#FFA0A2"/>
<path d="M30.0833 17.25C29.5773 17.25 29.1667 17.6597 29.1667 18.1667V19.0833H26.4167V9.91667C26.4167 9.40975 26.006 9 25.5 9C24.994 9 24.5833 9.40975 24.5833 9.91667V10.8333H22.75V9.91667C22.75 9.40975 22.3393 9 21.8333 9C21.3273 9 20.9167 9.40975 20.9167 9.91667V10.8333H19.0833V9.91667C19.0833 9.40975 18.6727 9 18.1667 9C17.6607 9 17.25 9.40975 17.25 9.91667V10.8333H15.4167V9.91667C15.4167 9.40975 15.006 9 14.5 9C13.994 9 13.5833 9.40975 13.5833 9.91667V19.0833H10.8333V18.1667C10.8333 17.6597 10.4227 17.25 9.91667 17.25C9.41067 17.25 9 17.6597 9 18.1667V26.875C9 29.1493 10.8508 31 13.125 31H17.25C17.756 31 18.1667 30.5903 18.1667 30.0833V26.4167C18.1667 25.4056 18.9889 24.5833 20 24.5833C21.0111 24.5833 21.8333 25.4056 21.8333 26.4167V30.0833C21.8333 30.5903 22.244 31 22.75 31H26.875C29.1493 31 31 29.1493 31 26.875V18.1667C31 17.6597 30.5893 17.25 30.0833 17.25ZM15.4167 12.6667H24.5833V19.0833H21.8333V16.3333C21.8333 15.3204 21.0129 14.5 20 14.5C18.9871 14.5 18.1667 15.3204 18.1667 16.3333V19.0833H15.4167V12.6667ZM26.875 29.1667H23.6667V26.4167C23.6667 24.3945 22.0222 22.75 20 22.75C17.9778 22.75 16.3333 24.3945 16.3333 26.4167V29.1667H13.125C11.8618 29.1667 10.8333 28.1391 10.8333 26.875V20.9167H29.1667V26.875C29.1667 28.1391 28.1382 29.1667 26.875 29.1667Z" fill="white"/>
</svg>
