<svg width="54" height="54" viewBox="0 0 54 54" fill="none" xmlns="http://www.w3.org/2000/svg">
<rect width="54" height="54" rx="27" fill="white"/>
<path d="M32 15H22C18.141 15 15 18.14 15 22V34C15 36.757 17.243 39 20 39H34C36.757 39 39 36.757 39 34V22C39 18.14 35.859 15 32 15ZM37 22V24H35V18.003C36.214 18.916 37 20.368 37 22ZM32 17C32.342 17 32.677 17.035 33 17.101V24H30C30 22.346 28.654 21 27 21C25.346 21 24 22.346 24 24H21V17.101C21.323 17.035 21.658 17 22 17H32ZM26 24C26 23.449 26.448 23 27 23C27.552 23 28 23.449 28 24V27C28 27.551 27.552 28 27 28C26.448 28 26 27.551 26 27V24ZM19 18.003V24H17V22C17 20.368 17.786 18.916 19 18.003ZM35 36.828V29C35 28.448 34.553 28 34 28C33.447 28 33 28.448 33 29V37H21V29C21 28.448 20.553 28 20 28C19.447 28 19 28.448 19 29V36.828C17.836 36.415 17 35.304 17 34V26H24V27C24 28.654 25.346 30 27 30C28.654 30 30 28.654 30 27V26H37V34C37 35.304 36.164 36.415 35 36.828Z" fill="#FFA0A2"/>
</svg>
