<svg width="76" height="48" viewBox="0 0 76 48" fill="none" xmlns="http://www.w3.org/2000/svg">
<rect width="76" height="48" rx="24" transform="matrix(-1 0 0 1 76 0)" fill="#FFA0A2"/>
<path d="M23.2929 24.7071C22.9024 24.3166 22.9024 23.6834 23.2929 23.2929L29.6569 16.9289C30.0474 16.5384 30.6805 16.5384 31.0711 16.9289C31.4616 17.3195 31.4616 17.9526 31.0711 18.3431L25.4142 24L31.0711 29.6569C31.4616 30.0474 31.4616 30.6805 31.0711 31.0711C30.6805 31.4616 30.0474 31.4616 29.6569 31.0711L23.2929 24.7071ZM52 23C52.5523 23 53 23.4477 53 24C53 24.5523 52.5523 25 52 25V24V23ZM24 24V23H52V24V25H24V24Z" fill="white"/>
</svg>
