<svg width="54" height="54" viewBox="0 0 54 54" fill="none" xmlns="http://www.w3.org/2000/svg">
<rect width="54" height="54" rx="27" fill="white"/>
<path d="M35.0415 14.9589C35.5143 14.9256 35.9891 14.9946 36.4331 15.1601C36.877 15.3256 37.2806 15.5845 37.6157 15.9189C37.9507 16.2533 38.2097 16.6556 38.3755 17.0986C38.5413 17.5416 38.61 18.0155 38.5767 18.4872C38.5432 18.9592 38.4088 19.4194 38.1821 19.8349C38.1522 19.8898 38.1207 19.9438 38.0877 19.9967C37.7529 20.5348 37.7188 21.2936 38.0412 21.8392C38.1203 21.9731 38.1916 22.1118 38.2544 22.2548C38.4825 22.7739 38.5956 23.3365 38.5845 23.9033C38.5454 26.0322 36.7795 27.757 34.646 27.7529C33.705 27.7508 32.7955 27.4118 32.0835 26.7978C31.7788 26.535 31.5188 26.2292 31.3102 25.8926C30.9625 25.3315 30.1039 25.0659 29.6366 25.5321L29.479 25.6894C29.251 25.9168 29.251 26.2862 29.479 26.5136V26.5136C29.936 26.9697 29.936 27.7098 29.479 28.166C29.022 28.6221 28.2808 28.622 27.8237 28.166V28.166C27.5954 27.9382 27.2259 27.9383 26.9976 28.166L16.947 38.1974C16.5567 38.5869 15.9247 38.587 15.5343 38.1975L15.2949 37.9587C14.9033 37.568 14.9033 36.9337 15.2948 36.543L25.3409 26.5161C25.5697 26.2877 25.5699 25.917 25.3413 25.6884V25.6884C24.8843 25.2323 24.8843 24.4922 25.3413 24.0361C25.7983 23.5804 26.5386 23.5804 26.9956 24.0361V24.0361C27.225 24.2649 27.5963 24.265 27.8258 24.0362L27.9783 23.8841C28.4462 23.4175 28.1811 22.5569 27.619 22.2095C27.2826 22.0016 26.977 21.7427 26.7144 21.4394C26.0992 20.7289 25.7595 19.8217 25.7573 18.8828C25.7531 16.7533 27.4815 14.9911 29.6147 14.9521C30.1827 14.941 30.7469 15.0525 31.2671 15.2802C31.4118 15.3436 31.5522 15.4155 31.6876 15.4955C32.2319 15.817 32.9883 15.7837 33.5253 15.4503C33.5798 15.4165 33.6354 15.3842 33.6919 15.3535C34.1082 15.1272 34.5686 14.9923 35.0415 14.9589ZM24.3084 34.5649C24.6516 34.9075 24.6517 35.4635 24.3085 35.8062V35.8062C23.9662 36.1479 23.4107 36.1469 23.0683 35.8051V35.8051C22.726 35.4633 22.1697 35.4628 21.8273 35.8045V35.8045C21.4846 36.1464 21.4838 36.7023 21.8265 37.0443V37.0443C22.1693 37.3863 22.1686 37.9423 21.8257 38.2841V38.2841C21.4833 38.6254 20.9287 38.6259 20.5865 38.2844L19.4324 37.1326C19.0409 36.7419 19.0409 36.1076 19.4324 35.7169L21.7413 33.4129C22.1317 33.0233 22.7638 33.0233 23.1541 33.4129L24.3084 34.5649ZM35.3667 22.1132C35.0265 21.9726 34.6517 21.9351 34.2905 22.0068C33.9294 22.0785 33.5978 22.2558 33.3374 22.5156C33.0771 22.7753 32.8995 23.1064 32.8276 23.4667C32.7558 23.8272 32.7922 24.2014 32.9331 24.541C33.074 24.8805 33.3134 25.1707 33.6196 25.3749C33.9258 25.579 34.2856 25.6884 34.6538 25.6884C35.1476 25.6884 35.621 25.492 35.9702 25.1435C36.3193 24.7951 36.516 24.3228 36.5161 23.83C36.5161 23.4626 36.4062 23.1033 36.2017 22.7978C35.9971 22.4923 35.7068 22.2539 35.3667 22.1132ZM30.4009 17.1572C30.0608 17.0167 29.6867 16.9801 29.3257 17.0517C28.9645 17.1234 28.632 17.3006 28.3716 17.5605C28.1113 17.8203 27.9336 18.1513 27.8618 18.5117C27.79 18.8721 27.8273 19.2463 27.9683 19.5859C28.1092 19.9253 28.3477 20.2158 28.6538 20.4199C28.9599 20.6239 29.3199 20.7323 29.688 20.7324C30.1818 20.7324 30.6562 20.5369 31.0054 20.1884C31.3545 19.8399 31.5503 19.3668 31.5503 18.874C31.5502 18.5065 31.4414 18.1472 31.2368 17.8417C31.0322 17.5361 30.7411 17.2978 30.4009 17.1572ZM35.0327 17.04C34.792 17.0878 34.5706 17.2057 34.397 17.3788C34.2234 17.5521 34.105 17.7733 34.0571 18.0136C34.0094 18.2536 34.0337 18.5023 34.1274 18.7285C34.2214 18.9548 34.3804 19.149 34.5845 19.2851C34.7886 19.4212 35.0294 19.4941 35.2749 19.4941C35.6039 19.494 35.9192 19.3629 36.1519 19.1308C36.3846 18.8985 36.5161 18.5834 36.5161 18.2548C36.5161 18.0098 36.4425 17.7701 36.3062 17.5663C36.1698 17.3628 35.9762 17.204 35.7495 17.1103C35.5228 17.0166 35.2734 16.9923 35.0327 17.04Z" fill="#FFA0A2"/>
</svg>
