<svg width="76" height="48" viewBox="0 0 76 48" fill="none" xmlns="http://www.w3.org/2000/svg">
<rect width="76" height="48" rx="24" fill="#FFA0A2"/>
<path d="M52.7071 24.7071C53.0976 24.3166 53.0976 23.6834 52.7071 23.2929L46.3431 16.9289C45.9526 16.5384 45.3195 16.5384 44.9289 16.9289C44.5384 17.3195 44.5384 17.9526 44.9289 18.3431L50.5858 24L44.9289 29.6569C44.5384 30.0474 44.5384 30.6805 44.9289 31.0711C45.3195 31.4616 45.9526 31.4616 46.3431 31.0711L52.7071 24.7071ZM24 23C23.4477 23 23 23.4477 23 24C23 24.5523 23.4477 25 24 25V24V23ZM52 24V23H24V24V25H52V24Z" fill="white"/>
</svg>
