<svg width="54" height="54" viewBox="0 0 54 54" fill="none" xmlns="http://www.w3.org/2000/svg">
<rect width="54" height="54" rx="27" fill="white"/>
<path d="M38.4498 24.6375C38.2139 24.3886 37.9183 24.2041 37.591 24.1014C37.2637 23.9988 36.9156 23.9814 36.5796 24.0509C36.3656 24.0939 36.1566 24.1508 35.9506 24.2068C35.1794 22.9235 34.1502 21.8141 32.928 20.9486C31.7058 20.0831 30.3172 19.4803 28.85 19.1785C29.1757 18.8203 29.3904 18.3754 29.4678 17.8976C29.5453 17.4199 29.4822 16.93 29.2862 16.4874C29.0903 16.0449 28.7699 15.6687 28.364 15.4046C27.9581 15.1406 27.4842 15 26.9998 15C26.5155 15 26.0415 15.1406 25.6356 15.4046C25.2297 15.6687 24.9093 16.0449 24.7134 16.4874C24.5174 16.93 24.4543 17.4199 24.5318 17.8976C24.6092 18.3754 24.8239 18.8203 25.1496 19.1785C23.6822 19.4809 22.2936 20.0843 21.0716 20.9506C19.8495 21.8168 18.8207 22.9269 18.05 24.2108C17.844 24.1518 17.635 24.0979 17.421 24.0549C17.0851 23.9853 16.7369 24.0026 16.4096 24.1053C16.0823 24.2079 15.7866 24.3925 15.5508 24.6415C15.3154 24.8879 15.1473 25.1906 15.0625 25.5206C14.9777 25.8506 14.9792 26.1968 15.0668 26.5261L17.967 37.0114C17.7205 37.0399 17.4933 37.1588 17.3297 37.3453C17.1661 37.5317 17.0777 37.7723 17.0817 38.0202C17.0856 38.2681 17.1817 38.5057 17.3513 38.6868C17.5208 38.8679 17.7517 38.9795 17.999 39H36.0006C36.2522 38.9847 36.4887 38.8749 36.6629 38.6928C36.837 38.5106 36.9358 38.2695 36.9396 38.0176C36.9434 37.7658 36.8519 37.5218 36.6833 37.3345C36.5148 37.1471 36.2816 37.0304 36.0306 37.0075L38.9378 26.5001C39.0216 26.1738 39.0207 25.8315 38.9353 25.5056C38.8499 25.1797 38.6828 24.8809 38.4498 24.6375ZM26.9998 21.0131C28.4217 21.036 29.8152 21.4141 31.0532 22.1132C32.2912 22.8123 33.3343 23.8099 34.0874 25.0152C33.3076 25.4789 32.6278 26.0926 32.0872 26.8209C31.5472 25.9614 30.7977 25.253 29.9088 24.7619C29.02 24.2709 28.021 24.0133 27.0053 24.0133C25.9897 24.0133 24.9906 24.2709 24.1018 24.7619C23.213 25.253 22.4634 25.9614 21.9234 26.8209C21.3831 26.0924 20.7032 25.4786 19.9232 25.0152C20.6753 23.8115 21.7167 22.8148 22.9526 22.1158C24.1886 21.4168 25.5798 21.0378 26.9998 21.0131ZM33.9584 37.0015H20.0442L17.0249 26.0095C18.9991 26.4092 20.9993 27.9081 20.9993 30.0066C20.9993 30.2716 21.1047 30.5258 21.2922 30.7132C21.4798 30.9006 21.7341 31.0058 21.9994 31.0058C22.2646 31.0058 22.519 30.9006 22.7065 30.7132C22.8941 30.5258 22.9995 30.2716 22.9995 30.0066C22.9995 28.9465 23.4209 27.9298 24.1711 27.1802C24.9213 26.4306 25.9388 26.0095 26.9998 26.0095C28.0608 26.0095 29.0783 26.4306 29.8285 27.1802C30.5787 27.9298 31.0002 28.9465 31.0002 30.0066C31.0002 30.2716 31.1055 30.5258 31.2931 30.7132C31.4806 30.9006 31.735 31.0058 32.0002 31.0058C32.2655 31.0058 32.5199 30.9006 32.7074 30.7132C32.895 30.5258 33.0003 30.2716 33.0003 30.0066C33.0003 27.9081 35.0005 26.4092 37.0007 25.9885L33.9584 37.0015Z" fill="#FFA0A2"/>
</svg>
